<svg xmlns="http://www.w3.org/2000/svg" xmlns:xlink="http://www.w3.org/1999/xlink" viewBox="0 0 300 300">
    <defs>
        <style>.cls-1{fill:url(#linear-gradient);}.cls-2{fill:#1b1f26;}.cls-3{fill:#666;}.cls-4{fill:#ffb633;}</style>
        <linearGradient id="linear-gradient" x1="2.4" y1="150" x2="296" y2="150" gradientUnits="userSpaceOnUse">
            <stop offset="0" stop-color="#1b1f26"/><stop offset="1"/>
        </linearGradient>
    </defs>
    <title>logo</title>
    <g id="top"><polygon points="55 71.5 149 45.5 243 71.5 150 111.5 55 71.5"/></g>
    <g id="ring"><path class="cls-1" d="M149.2,296.8C68.25,296.8,2.4,231,2.4,150S68.25,3.2,149.2,3.2,296,69.05,296,150,230.15,296.8,149.2,296.8Zm0-280.25C75.61,16.55,15.75,76.41,15.75,150S75.61,283.45,149.2,283.45,282.65,223.59,282.65,150,222.79,16.55,149.2,16.55Z"/></g>
    <g id="left"><polygon class="cls-2" points="54.91 71.22 149.2 111.37 149.2 265.23 54.91 197.19 54.91 71.22"/></g>
    <g id="right"><polygon class="cls-3" points="243.49 71.22 149.2 111.37 149.2 265.23 243.49 197.19 243.49 71.22"/></g>
    <g id="lyj"><polygon class="cls-4" points="123.45 246.7 54.99 197.29 54.99 97.08 65.67 97.08 65.67 191.83 129.7 238.04 123.45 246.7"/>
        <polygon class="cls-4" points="174.94 246.16 168.7 237.51 232.73 191.3 232.73 96.54 243.41 96.54 243.41 196.76 174.94 246.16"/>
        <polygon class="cls-4" points="223.91 91.71 219.76 81.87 149.68 111.45 80.22 81.88 76.03 91.7 144.33 120.78 144.33 229.74 155 229.74 155 120.79 223.91 91.71"/>
    </g>
</svg>